<!--?xml version="1.0" standalone="no"?-->
              <svg id="sw-js-blob-svg" viewBox="0 0 100 100" xmlns="http://www.w3.org/2000/svg" version="1.1">
                    <defs> 
                        <linearGradient id="sw-gradient" x1="0" x2="1" y1="1" y2="0">
                            <stop id="stop1" stop-color="rgba(248, 117, 55, 1)" offset="0%"></stop>
                            <stop id="stop2" stop-color="rgba(251, 168, 31, 1)" offset="100%"></stop>
                        </linearGradient>
                    </defs>
                <path fill="none" d="M23,-31.6C30.3,-26.4,37.1,-20.3,41,-12.4C44.8,-4.5,45.7,5.3,43,14C40.3,22.7,33.9,30.3,26.1,35.2C18.4,40,9.2,42.1,0.5,41.3C-8.1,40.6,-16.3,37.1,-24.1,32.3C-32,27.5,-39.6,21.4,-40.9,14.1C-42.1,6.8,-36.9,-1.7,-33.7,-10.8C-30.6,-19.9,-29.5,-29.5,-24.2,-35.4C-18.9,-41.3,-9.5,-43.4,-0.8,-42.3C7.8,-41.2,15.7,-36.8,23,-31.6Z" width="100%" height="100%" transform="translate(50 50)" stroke-width="1" style="transition: all 0.3s ease 0s;" stroke="url(#sw-gradient)"></path>
              </svg>